<svg width="14" height="15" viewBox="0 0 14 15" fill="none" xmlns="http://www.w3.org/2000/svg">
<path d="M-0.505154 0.389605C-0.780545 0.468706 -0.962186 0.685503 -0.991483 0.972612C-1.02078 1.26558 -0.803983 1.59371 -0.534451 1.66988C-0.475858 1.68453 -0.0862091 1.69918 0.335666 1.69918C1.0593 1.69918 1.10324 1.70211 1.15305 1.75777C1.19406 1.80464 1.30539 2.49898 1.72727 5.41109C2.11985 8.1064 2.26926 9.06734 2.32785 9.24605C2.52121 9.85543 3.07785 10.3535 3.71067 10.4853C3.81906 10.5087 4.97629 10.5175 7.57199 10.5175C11.7263 10.5175 11.4919 10.5293 11.9343 10.3037C12.3474 10.0927 12.7107 9.65621 12.8425 9.20504C12.8659 9.12593 13.1384 7.81929 13.446 6.29586C13.8532 4.2773 13.9997 3.49214 13.9909 3.39253C13.9734 3.19918 13.8445 2.99703 13.6657 2.8857L13.5222 2.79781L8.11106 2.78902L2.70285 2.78316L2.63547 2.30562C2.54172 1.63179 2.49485 1.42378 2.39231 1.20992C2.23117 0.864214 1.8884 0.568316 1.49582 0.43062C1.34641 0.377886 1.23801 0.372026 0.479221 0.363237C-0.150662 0.354448 -0.405545 0.363237 -0.505154 0.389605Z" fill="#F4D139"/>
<path d="M3.98021 11.209C3.40892 11.3584 2.95189 11.7832 2.76439 12.3457C2.55052 12.9815 2.70286 13.6319 3.17161 14.1065C3.53489 14.4727 3.88646 14.625 4.37571 14.625C4.8679 14.628 5.26048 14.4551 5.60618 14.086C6.52025 13.1192 6.0515 11.5371 4.75657 11.2061C4.54271 11.1504 4.19407 11.1533 3.98021 11.209Z" fill="#F4D139"/>
<path d="M9.92768 11.209C9.11322 11.4287 8.55658 12.1992 8.62104 13.0196C8.65619 13.4619 8.82318 13.8135 9.14838 14.1358C9.49115 14.4756 9.88373 14.6338 10.3818 14.6309C11.0146 14.628 11.5947 14.2764 11.9023 13.708C12.0693 13.4033 12.1396 12.8965 12.0634 12.5332C11.9374 11.9151 11.3896 11.3526 10.7744 11.2061C10.54 11.1504 10.1386 11.1533 9.92768 11.209Z" fill="#F4D139"/>
</svg>
