<svg width="19" height="15" viewBox="0 0 19 15" fill="none" xmlns="http://www.w3.org/2000/svg">
<path d="M16.0764 1.24659C14.873 0.665494 13.5701 0.243729 12.213 4.3112e-05C12.2011 -0.0003511 12.1892 0.00196212 12.1783 0.00682017C12.1673 0.0116782 12.1576 0.0189631 12.1496 0.028161C11.9868 0.337455 11.7968 0.740474 11.6701 1.04977C10.2306 0.824827 8.76663 0.824827 7.32711 1.04977C7.20044 0.731102 7.01044 0.337455 6.83853 0.028161C6.82948 0.00941586 6.80233 4.3112e-05 6.77519 4.3112e-05C5.41801 0.243729 4.12417 0.665494 2.91175 1.24659C2.9027 1.24659 2.89366 1.25596 2.88461 1.26534C0.423588 5.07996 -0.255001 8.79149 0.0797697 12.4655C0.0797697 12.4843 0.0888175 12.503 0.106913 12.5124C1.73553 13.7496 3.30081 14.4994 4.848 14.9961C4.87514 15.0055 4.90228 14.9961 4.91133 14.9774C5.27325 14.4619 5.59897 13.9183 5.87945 13.3465C5.89755 13.3091 5.87945 13.2716 5.84326 13.2622C5.32753 13.056 4.83895 12.8123 4.35941 12.5311C4.32322 12.5124 4.32322 12.4562 4.35036 12.428C4.44989 12.3531 4.54942 12.2687 4.64894 12.1937C4.66704 12.175 4.69418 12.175 4.71228 12.1844C7.82474 13.6558 11.1815 13.6558 14.2578 12.1844C14.2759 12.175 14.303 12.175 14.3211 12.1937C14.4206 12.2781 14.5202 12.3531 14.6197 12.4374C14.6559 12.4655 14.6559 12.5218 14.6106 12.5405C14.1402 12.8311 13.6425 13.0654 13.1268 13.2716C13.0906 13.2809 13.0816 13.3278 13.0906 13.3559C13.3801 13.9276 13.7059 14.4713 14.0587 14.9867C14.0859 14.9961 14.113 15.0055 14.1402 14.9961C15.6964 14.4994 17.2617 13.7496 18.8903 12.5124C18.9084 12.503 18.9174 12.4843 18.9174 12.4655C19.3155 8.21977 18.2569 4.53636 16.1126 1.26534C16.1035 1.25596 16.0945 1.24659 16.0764 1.24659ZM6.34994 10.2255C5.41801 10.2255 4.63989 9.3351 4.63989 8.23851C4.63989 7.14192 5.39992 6.25153 6.34994 6.25153C7.30902 6.25153 8.06904 7.1513 8.05999 8.23851C8.05999 9.3351 7.29997 10.2255 6.34994 10.2255ZM12.6563 10.2255C11.7244 10.2255 10.9463 9.3351 10.9463 8.23851C10.9463 7.14192 11.7063 6.25153 12.6563 6.25153C13.6154 6.25153 14.3754 7.1513 14.3664 8.23851C14.3664 9.3351 13.6154 10.2255 12.6563 10.2255Z" fill="#565F6F"/>
</svg>
