<svg width="20" height="24" viewBox="0 0 20 24" fill="none" xmlns="http://www.w3.org/2000/svg">
<path fill-rule="evenodd" clip-rule="evenodd" d="M18.6667 12.0834V17.5C18.6667 18.362 18.3243 19.1886 17.7148 19.7981C17.1053 20.4076 16.2786 20.75 15.4167 20.75H11.0833V12.0834H18.6667ZM8.91667 12.0834V20.75H4.58334C3.72138 20.75 2.89473 20.4076 2.28524 19.7981C1.67575 19.1886 1.33334 18.362 1.33334 17.5V12.0834H8.91667ZM6.75 0.16669C7.36489 0.165961 7.97285 0.296426 8.5333 0.549374C9.09375 0.802323 9.59378 1.17193 10 1.63352C10.4062 1.17193 10.9063 0.802323 11.4667 0.549374C12.0272 0.296426 12.6351 0.165961 13.25 0.16669H13.7917C14.2226 0.16669 14.636 0.337895 14.9407 0.642642C15.2455 0.947388 15.4167 1.36071 15.4167 1.79169V2.33336C15.4167 3.12311 15.2054 3.86302 14.8371 4.50002H17.5833C18.158 4.50002 18.7091 4.7283 19.1154 5.13463C19.5217 5.54095 19.75 6.09205 19.75 6.66669V8.83336C19.75 9.22769 19.6449 9.59819 19.4597 9.91669H11.0833V6.66669C11.0833 6.37937 10.9692 6.10382 10.766 5.90066C10.5629 5.69749 10.2873 5.58336 10 5.58336C9.71268 5.58336 9.43713 5.69749 9.23397 5.90066C9.03081 6.10382 8.91667 6.37937 8.91667 6.66669V9.91669H0.540335C0.349674 9.58752 0.249506 9.21376 0.250002 8.83336V6.66669C0.250002 6.09205 0.478275 5.54095 0.884604 5.13463C1.29093 4.7283 1.84203 4.50002 2.41667 4.50002H5.16292C4.78207 3.84153 4.58212 3.09405 4.58334 2.33336V1.79169C4.58334 1.36071 4.75454 0.947388 5.05929 0.642642C5.36403 0.337895 5.77736 0.16669 6.20834 0.16669H6.75ZM6.75 2.33336C6.75 2.90799 6.97828 3.45909 7.3846 3.86542C7.79093 4.27175 8.34203 4.50002 8.91667 4.50002C8.91667 3.92539 8.6884 3.37429 8.28207 2.96796C7.87574 2.56163 7.32464 2.33336 6.75 2.33336ZM13.25 2.33336C12.6754 2.33336 12.1243 2.56163 11.7179 2.96796C11.3116 3.37429 11.0833 3.92539 11.0833 4.50002C11.658 4.50002 12.2091 4.27175 12.6154 3.86542C13.0217 3.45909 13.25 2.90799 13.25 2.33336Z" fill="black"/>
</svg>
