<svg width="18" height="15" viewBox="0 0 18 15" fill="none" xmlns="http://www.w3.org/2000/svg">
<path d="M11.6997 4.35484e-06C9.08956 -0.00352506 7.19947 2.13883 7.19947 4.41177C7.19947 4.41177 4.81435 4.0244 2.55974 2.06646C2.20332 1.75675 1.8415 1.76471 1.7992 1.76471C1.32668 1.76471 0.898255 2.14589 0.899155 2.64706C0.900055 3.0053 0.899155 4.53618 0.899155 4.9403C0.899155 5.94971 1.22946 6.81265 1.75868 7.52294C1.75868 7.53 1.75868 7.52031 1.75868 8.27825C1.75868 9.62913 2.28702 10.6579 3.27257 11.1979C3.00975 11.5773 2.36354 11.9162 1.79651 12.1262C1.42029 12.2665 1.07827 12.3503 0.907257 12.3521C0.400532 12.3591 0.00271658 12.7738 1.64502e-05 13.2371C-0.00268368 13.6994 0.327623 13.9271 0.541834 14.0673C0.891051 14.2968 1.35279 14.4344 1.79651 14.5606C2.83246 14.8544 3.95119 15 5.11045 15C10.8302 15 15.5474 10.8009 16.1414 5.33473C16.1414 5.33473 16.3376 4.73734 16.8119 4.20087C17.2872 3.6644 18 3.25675 18 3.25675L16.2764 3.21884L17.4024 1.67294C17.4024 1.67294 15.5528 2.05324 15.2999 1.76471C14.4637 0.645004 12.9949 0.00176906 11.6997 4.35484e-06ZM13.4998 2.64706C13.9966 2.64706 14.3998 3.04146 14.3998 3.52764C14.3998 4.0147 13.9966 4.40913 13.4998 4.40913C13.003 4.40913 12.5997 4.0147 12.5997 3.52764C12.5997 3.04146 13.003 2.64706 13.4998 2.64706Z" fill="#565F6F"/>
</svg>
