<svg width="23" height="24" viewBox="0 0 23 24" fill="none" xmlns="http://www.w3.org/2000/svg">
<g filter="url(#filter0_d_1_226)">
<path d="M8.28774 20H4.53853C4.44723 20 4.35742 19.9768 4.27766 19.9326C4.19789 19.8883 4.1308 19.8245 4.08277 19.7472C4.03474 19.6699 4.00736 19.5816 4.00323 19.4908C3.9991 19.4 4.01836 19.3096 4.05917 19.2283L7.68894 12L4.05649 4.77174C4.01558 4.69021 3.99632 4.59959 4.00058 4.50854C4.00483 4.41749 4.03245 4.32905 4.0808 4.25165C4.12914 4.17425 4.1966 4.11049 4.27673 4.06643C4.35686 4.02238 4.447 3.99951 4.53853 4.00001L8.28774 4.00001C8.38727 3.99996 8.48484 4.02753 8.56952 4.07963C8.65419 4.13172 8.72261 4.20628 8.7671 4.29494L12.5163 11.7616C12.5535 11.8356 12.5728 11.9172 12.5728 12C12.5728 12.0828 12.5535 12.1644 12.5163 12.2384L8.7671 19.7051C8.72261 19.7937 8.65419 19.8683 8.56952 19.9204C8.48484 19.9725 8.38727 20 8.28774 20ZM15.1943 19.7051L18.9435 12.2384C18.9807 12.1644 19 12.0828 19 12C19 11.9172 18.9807 11.8356 18.9435 11.7616L15.1943 4.29494C15.1498 4.20628 15.0814 4.13172 14.9967 4.07963C14.9121 4.02753 14.8145 3.99996 14.7149 4.00001L10.9657 4.00001C10.8744 3.99997 10.7846 4.02317 10.7049 4.06741C10.6251 4.11165 10.558 4.17547 10.51 4.25279C10.462 4.33012 10.4346 4.41838 10.4304 4.50921C10.4263 4.60004 10.4456 4.69041 10.4864 4.77174L14.1161 12L10.4837 19.2283C10.4428 19.3098 10.4235 19.4004 10.4278 19.4915C10.432 19.5825 10.4597 19.6709 10.508 19.7483C10.5563 19.8257 10.6238 19.8895 10.7039 19.9336C10.7841 19.9776 10.8742 20.0005 10.9657 20H14.7149C14.8145 20 14.9121 19.9725 14.9967 19.9204C15.0814 19.8683 15.1498 19.7937 15.1943 19.7051Z" fill="#F4D139"/>
</g>
<defs>
<filter id="filter0_d_1_226" x="0" y="0" width="23" height="24" filterUnits="userSpaceOnUse" color-interpolation-filters="sRGB">
<feFlood flood-opacity="0" result="BackgroundImageFix"/>
<feColorMatrix in="SourceAlpha" type="matrix" values="0 0 0 0 0 0 0 0 0 0 0 0 0 0 0 0 0 0 127 0" result="hardAlpha"/>
<feOffset/>
<feGaussianBlur stdDeviation="2"/>
<feComposite in2="hardAlpha" operator="out"/>
<feColorMatrix type="matrix" values="0 0 0 0 0.956863 0 0 0 0 0.819608 0 0 0 0 0.223529 0 0 0 0.25 0"/>
<feBlend mode="normal" in2="BackgroundImageFix" result="effect1_dropShadow_1_226"/>
<feBlend mode="normal" in="SourceGraphic" in2="effect1_dropShadow_1_226" result="shape"/>
</filter>
</defs>
</svg>
